<svg width="19" height="19" viewBox="0 0 19 19" fill="none" xmlns="http://www.w3.org/2000/svg">
<path d="M9 0.828125C4.05 0.828125 0 4.87812 0 9.82812C0 13.5406 2.19375 16.6906 5.4 18.0969C5.4 17.4781 5.4 16.6906 5.56875 16.0156C5.7375 15.2844 6.75 11.1219 6.75 11.1219C6.75 11.1219 6.46875 10.5594 6.46875 9.71562C6.46875 8.36562 7.25625 7.40938 8.2125 7.40938C9.05625 7.40938 9.45 8.02813 9.45 8.75938C9.45 9.60313 8.94375 10.8406 8.6625 11.9656C8.4375 12.9219 9.16875 13.7094 10.0688 13.7094C11.7563 13.7094 12.9375 11.5156 12.9375 8.92812C12.9375 6.95937 11.5875 5.49687 9.16875 5.49687C6.4125 5.49687 4.725 7.52187 4.725 9.82812C4.725 10.6156 4.95 11.1781 5.34375 11.5719C5.5125 11.7406 5.5125 11.8531 5.45625 12.0781C5.4 12.2469 5.2875 12.6406 5.2875 12.8094C5.23125 13.0344 5.0625 13.1469 4.8375 13.0344C3.6 12.5281 2.98125 11.1219 2.98125 9.60313C2.98125 7.07188 5.11875 3.97813 9.39375 3.97813C12.825 3.97813 15.075 6.45312 15.075 9.15312C15.075 12.6969 13.1063 15.3406 10.2375 15.3406C9.28125 15.3406 8.325 14.8344 8.04375 14.2156C8.04375 14.2156 7.5375 16.2969 7.425 16.6906C7.25625 17.3656 6.8625 18.0969 6.525 18.6031C7.3125 18.8281 8.2125 18.9969 9.05625 18.9969C14.0062 18.9969 18.0562 14.9469 18.0562 9.99687C18 4.87812 13.95 0.828125 9 0.828125Z" fill="black"/>
</svg>
