<svg width="18" height="18" viewBox="0 0 18 18" fill="none" xmlns="http://www.w3.org/2000/svg">
<path d="M17.3869 5.34962C17.3458 4.45131 17.2035 3.83819 16.9948 3.30156C16.7794 2.74694 16.4908 2.27612 16.0217 1.807C15.5526 1.33787 15.0823 1.04931 14.5271 0.833875C13.9905 0.625188 13.3768 0.482875 12.4791 0.441812C11.5791 0.400187 11.2916 0.390625 9 0.390625C6.70838 0.390625 6.42094 0.400188 5.5215 0.44125C4.62319 0.482313 4.01006 0.624625 3.47344 0.833313C2.91881 1.04875 2.448 1.33731 1.97887 1.80644C1.50975 2.27556 1.22119 2.74581 1.00575 3.301C0.797063 3.83762 0.65475 4.45131 0.613687 5.34906C0.572062 6.24906 0.5625 6.5365 0.5625 8.82812C0.5625 11.1197 0.572063 11.4072 0.613125 12.3066C0.654188 13.2049 0.7965 13.8181 1.00519 14.3547C1.22063 14.9093 1.50919 15.3801 1.97831 15.8492C2.44744 16.3184 2.91769 16.6069 3.47287 16.8224C4.0095 17.0311 4.62319 17.1734 5.52094 17.2144C6.42094 17.2561 6.70838 17.2656 9 17.2656C11.2916 17.2656 11.5791 17.2561 12.4785 17.215C13.3768 17.1739 13.9899 17.0316 14.5266 16.8229C15.0812 16.6075 15.552 16.3189 16.0211 15.8498C16.4902 15.3807 16.7788 14.9104 16.9943 14.3553C17.2029 13.8186 17.3453 13.2049 17.3863 12.3072C17.4279 11.4072 17.4375 11.1197 17.4375 8.82812C17.4375 6.5365 17.4279 6.24906 17.3869 5.34962ZM15.8681 12.2374C15.8304 13.0598 15.6932 13.507 15.5779 13.804C15.4249 14.1978 15.2421 14.479 14.9467 14.7743C14.6514 15.0696 14.3702 15.2524 13.9764 15.4054C13.6789 15.5208 13.2323 15.6586 12.4099 15.6957C11.5206 15.7362 11.2534 15.7446 9.00056 15.7446C6.74775 15.7446 6.48056 15.7362 5.59125 15.6957C4.76888 15.658 4.32169 15.5208 4.02469 15.4054C3.63094 15.2524 3.34969 15.0696 3.05438 14.7743C2.75906 14.479 2.57625 14.1978 2.42325 13.804C2.30794 13.5064 2.17012 13.0598 2.133 12.2374C2.0925 11.3476 2.08406 11.0809 2.08406 8.82812C2.08406 6.57531 2.0925 6.30812 2.133 5.41881C2.17069 4.59644 2.30794 4.14925 2.42325 3.85225C2.57625 3.4585 2.75906 3.17725 3.05438 2.88194C3.34969 2.58663 3.63094 2.40381 4.02469 2.25081C4.32225 2.1355 4.76888 1.99769 5.59125 1.96056C6.48113 1.92006 6.74775 1.91163 9.00056 1.91163C11.2534 1.91163 11.5206 1.92006 12.4099 1.96056C13.2323 1.99825 13.6794 2.1355 13.9764 2.25081C14.3702 2.40381 14.6514 2.58663 14.9467 2.88194C15.2421 3.17725 15.4249 3.4585 15.5779 3.85225C15.6932 4.14981 15.831 4.59644 15.8681 5.41881C15.9086 6.30869 15.9171 6.57531 15.9171 8.82812C15.9171 11.0809 15.9086 11.3481 15.8681 12.2374ZM9 4.49519C6.60712 4.49519 4.66706 6.43525 4.66706 8.82812C4.66706 11.221 6.60712 13.1611 9 13.1611C11.3929 13.1611 13.3329 11.221 13.3329 8.82812C13.3329 6.43525 11.3929 4.49519 9 4.49519ZM9 11.6406C7.44694 11.6406 6.1875 10.3812 6.1875 8.82812C6.1875 7.27506 7.44694 6.01562 9 6.01562C10.5531 6.01562 11.8125 7.27506 11.8125 8.82812C11.8125 10.3812 10.5531 11.6406 9 11.6406ZM13.5039 3.31169C12.9448 3.31169 12.4914 3.76506 12.4914 4.32419C12.4914 4.88331 12.9448 5.33669 13.5039 5.33669C14.0631 5.33669 14.5164 4.88331 14.5164 4.32419C14.5164 3.76506 14.0631 3.31169 13.5039 3.31169Z" fill="black"/>
</svg>
