<svg width="18" height="10" viewBox="0 0 18 10" fill="none" xmlns="http://www.w3.org/2000/svg">
<path d="M13.5214 0.328125C14.7606 0.328125 15.8164 0.778687 16.6899 1.68037C17.5635 2.55337 18 3.60975 18 4.8495C18 6.08869 17.5635 7.15913 16.6899 8.06081C15.8169 8.93381 14.7606 9.37031 13.5214 9.37031H9.88762V7.63781H13.5214C14.2819 7.63781 14.9299 7.37063 15.4648 6.83513C16.0284 6.2715 16.3097 5.61 16.3097 4.8495C16.3097 4.08844 16.0284 3.441 15.4648 2.9055C14.9293 2.34244 14.2819 2.06063 13.5214 2.06063H9.88762V0.328125H13.5214ZM5.40844 5.73656V3.96187H12.5916V5.73656H5.40844ZM2.493 2.9055C1.9575 3.441 1.69031 4.08844 1.69031 4.8495C1.69031 5.61 1.9575 6.27206 2.493 6.83513C3.05662 7.37063 3.71812 7.63781 4.47862 7.63781H8.11238V9.37031H4.47862C3.23944 9.37031 2.18363 8.93381 1.31006 8.06025C0.4365 7.15969 0 6.08869 0 4.8495C0 3.60975 0.4365 2.55337 1.31006 1.68037C2.1825 0.778125 3.23944 0.328125 4.47862 0.328125H8.11238V2.06063H4.47862C3.71812 2.06063 3.05606 2.34188 2.493 2.9055Z" fill="black"/>
</svg>
